<svg id="Layer_1" data-name="Layer 1" xmlns="http://www.w3.org/2000/svg" viewBox="0 0 1056.14 599.81"><defs><style>.cls-1{fill:#5fcbff;stroke:#000;stroke-miterlimit:10;stroke-width:9px;}.cls-2{fill:#ffe60a;}</style></defs><title>sp</title><path class="cls-1" d="M1294.08,791.48l-694.17-.88c-34,0-53.86-38.22-34.46-66.08L916.33,220.61a47,47,0,0,1,38.77-19.94l584.49,4c49.76.34,81.11,53.69,57.21,97.32L1345.05,761.31A58.1,58.1,0,0,1,1294.08,791.48Z" transform="translate(-553.33 -196.17)"/><path class="cls-2" d="M700.68,673c-.26.35-.52.69-.77,1l0,0-1,1.27C699.46,674.52,700.07,673.73,700.68,673Z" transform="translate(-553.33 -196.17)"/><path d="M702.39,678.1l-7.11-5.51c.61-.81,1.23-1.62,1.86-2.41l7.15,5.46-.17.23c-.18.23-.35.46-.51.7l-.4.51Z" transform="translate(-553.33 -196.17)"/><path class="cls-2" d="M702,685.9l.51.24-.58-.24-.86-.12q.4.06.81.09l-2.58-1.09c.15.14.31.27.46.39l-.56-.43-1-.42.9.35-1.82-1.41c.16.26.35.52.54.78l-.69-.9-.67-.51q.09.3.21.6l-.27-.65h0c-.11-.27-.23-.54-.34-.82l-.11-.14c0,.47,0,.95.08,1.43l-.21-1.56c-.15.61-.27,1.22-.37,1.85l.27-2-.12-.16c-.11.21-.21.43-.31.65l.29-.68-.57-.73c.19.23.37.46.58.69a2.14,2.14,0,0,0,.1-.22c-.28-.64-.55-1.29-.82-1.94.26.6.54,1.19.85,1.76-.08-.62-.17-1.23-.25-1.86a15.67,15.67,0,0,0,.36,1.68c.09-.66.17-1.31.26-2-.06.56-.11,1.12-.12,1.67l1.14-2.7c-.29.71-.55,1.42-.78,2.14-.14.44-.27.88-.38,1.32a1,1,0,0,0,.08.29,9.68,9.68,0,0,0,.61,1,20,20,0,0,0,1.53,1.52,26.42,26.42,0,0,0,2.29,1.35,34,34,0,0,0,3.43.92c.65.13,1.3.26,2,.36Z" transform="translate(-553.33 -196.17)"/><path d="M703.3,704l-4.88-9-1.09,8L695,694.28l-3.86,9.15.32-18.06-14.19-7.5,9.53,1.34-9.47-8.82,9.28,4-6-9.73,7.61,5.87v0l3.13,2.42-.12-5.3,2.6,3.49,3.38-13.74,2.78,20.71h1v1l.38.15c-.14.33-.26.65-.38,1v0l0,0c.41.26.84.51,1.29.76.83.26,1.69.48,2.62.68.52.1,1.09.22,1.68.31l-.13.91,22.88,9.58-14-1.06,9.9,7.62-23.48-8.63h-.13Z" transform="translate(-553.33 -196.17)"/><path class="cls-2" d="M713.09,685.75l-4.78.65c1-.14,2-.29,3-.47C711.9,685.88,712.49,685.82,713.09,685.75Z" transform="translate(-553.33 -196.17)"/><path d="M708.93,690.86l-1.25-8.92c.94-.13,1.88-.27,2.81-.44l.44,0,1.64-.17,1.14,8.93Z" transform="translate(-553.33 -196.17)"/><path class="cls-2" d="M730.27,644.78l-2.08,1.63-.14.11c-.48.35-.95.71-1.42,1.07Z" transform="translate(-553.33 -196.17)"/><path d="M729.36,651.17,723.87,644l1.84-1.42,1.8-1.39,5.53,7.09-.65.51-1.29,1a3.57,3.57,0,0,1-.49.38l-1.15.87Z" transform="translate(-553.33 -196.17)"/><path class="cls-2" d="M746.68,674.44l-4.3,1.81c.42-.18.83-.35,1.24-.54Z" transform="translate(-553.33 -196.17)"/><path d="M744.12,680.4l-3.51-8.29.28-.12.84-.36.19-.09,2.14-.88.74-.31.15-.06h0l3.46,8.3,0,0-.09,0c-.79.32-1.57.66-2.36,1Z" transform="translate(-553.33 -196.17)"/><path class="cls-2" d="M775.64,619.38l-1.83.79-.12.05-2.35,1Z" transform="translate(-553.33 -196.17)"/><path d="M773.08,625.34l-3.49-8.29.29-.13,1.45-.61,2.58-1.08,3.49,8.29c-.59.25-1.18.5-1.77.77l-.43.17-1.84.76Z" transform="translate(-553.33 -196.17)"/><path class="cls-2" d="M806.36,638.35l-3.65,2.82,2.16-1.69Z" transform="translate(-553.33 -196.17)"/><path d="M805.46,644.74,800,637.62l2.13-1.67.11-.09,1-.76.42-.33,5.48,7.14Z" transform="translate(-553.33 -196.17)"/><path class="cls-2" d="M849.67,600.52l-2.42.34-.32,0h0l-2,.26,2.06-.28Z" transform="translate(-553.33 -196.17)"/><path d="M845.46,605.62l-1.17-8.92.76-.1,1.24-.17.11,0,1.37-.17,1.29-.18,1.25,8.91-1.32.19-1.08.15-.22,0-.32,0h0l-1.12.14Z" transform="translate(-553.33 -196.17)"/><path class="cls-2" d="M1417.45,315a51.37,51.37,0,0,0-10.24-17c-6-6.69-16.16-7.79-24.66-8.57-11.13-1-22.83,1.06-33.34,4.71-20.67,7.16-39.34,19.07-57.37,31.22q-17.82,12-35.11,24.84a17.18,17.18,0,0,0,.25-9.86c-1.15-4.17-4.38-8.7-8.27-10.75-4.18-2.21-9.24-3.32-13.87-1.82-4.23,1.37-8.81,4.09-10.76,8.27q-15.7,33.62-31.73,67.05A719.15,719.15,0,0,0,1124,474.5q-18.91,22.77-36.07,46.94c-10.72,15.1-21.18,30.54-30.47,46.57-.84,0-1.67.06-2.51.08-30.34-.73-60.62-3.08-90.91-4.82-13-.75-26.1-1.38-39.17-1.69q5.34-7.51,10.48-15.14c18.93-28,36.31-57,53.91-85.77,17-27.88,34.28-55.66,53.36-82.2q6.24-8.69,12.75-17.17c21.87-28,46.25-54.17,74.29-76.1l.16-.12c11.38-8.69,23.43-17.26,36.49-23.21a55.06,55.06,0,0,1,9.21-2.75,31.06,31.06,0,0,1,3.2-.05c.4.09.8.2,1.19.32h0c.25.13.5.28.75.44h0c.4.38.77.76,1.14,1.16l0,0a39.37,39.37,0,0,1,2.16,3.79,48.3,48.3,0,0,1,1.9,7.2,73.05,73.05,0,0,1-.18,13.87.13.13,0,0,1,0,.06,126.23,126.23,0,0,1-7.57,26.67,189.33,189.33,0,0,1-22.64,37.61,298,298,0,0,1-50.1,50A296.55,296.55,0,0,1,1044.21,436c-1,.41-1.93.81-2.9,1.2-4.51,1.81-8.2,3.91-10.75,8.27-2.26,3.86-3.22,9.54-1.82,13.87s4.11,8.56,8.27,10.76c4,2.11,9.47,3.58,13.87,1.81,47.59-19.12,90.51-49,123.69-88.32,17.84-21.12,33.18-44.2,41.69-70.71,8-25.06,10.29-56.84-9.1-77.5a40,40,0,0,0-17.76-10.74c-7-2-13.79-1.68-20.84-.65-10.27,1.5-20.15,6.23-29.09,11.34a262.9,262.9,0,0,0-28.87,19.53,402.94,402.94,0,0,0-32.93,27.86c-39.11,37.13-70.54,81.71-99.23,127.13-29.52,46.73-56.6,95.08-89.11,139.84q-4.51,6.21-9.16,12.32h0q-9.76.48-19.52,1.39c-32.87,3.08-65.64,9.49-96.29,22-15.51,6.35-30.55,13.65-44.52,23a212.81,212.81,0,0,0-37.75,31.82c-5.46,5.85-11,11.78-15.27,18.6a46.91,46.91,0,0,0-5.51,12.41,39.52,39.52,0,0,0-.43,17.74c1.64,9.26,8,17.5,15.29,23.11,8.36,6.46,18.06,9.6,28.6,10.1,9.12.44,18.51-1.6,27.21-4.2a236.52,236.52,0,0,0,23.37-8.4,298.63,298.63,0,0,0,45.83-23.65c27.48-17.52,52.39-39.14,74.53-63,7.63-8.22,15-16.72,22-25.42,40.31-.64,80.72,2.92,121,5.14q9.61.54,19.25.94c-13,25-24.65,50.68-33.88,77.32q-4.92,14.19-8.83,28.69-2.06,7.68-3.83,15.43c-1.28,5.63-3.13,11.72-2.55,17.52.81,8.19,3.73,15.54,9.51,21.56a29.36,29.36,0,0,0,20.54,8.94c7.22.09,14.56-2.83,21-5.75a60.34,60.34,0,0,0,11-6.62c4.56-3.39,8.94-7,13.21-10.74,1.58-1.4,3.26-2.74,4.78-4.22a21.5,21.5,0,0,0,4.79-7.67c3.39-3.45,7.13-6.51,9.64-10.79s4.93-8.55,7.3-12.89q6.78-12.44,12.9-25.21c8.79-18.25,17.05-36.82,24.81-55.53,4.23-10.19,8.45-20.38,12.74-30.54q5.88-13.9,11.86-27.77,10.11-5.38,19.8-11.47c34-21.33,67.51-43.55,99.7-67.57,32.56-24.29,63.89-50.21,93.14-78.43,14.45-13.93,29.64-28,40.45-45A93.71,93.71,0,0,0,1418,346.27,62.17,62.17,0,0,0,1420,330.4,45.43,45.43,0,0,0,1417.45,315ZM847.25,600.86l-.32,0h0a390.1,390.1,0,0,1-42,38.58l1.49-1.13-3.65,2.82,2.16-1.69a291.94,291.94,0,0,1-61.25,36.23l3.06-1.27-4.3,1.81c.42-.18.83-.35,1.24-.54C733.24,680,722.37,684,711.3,685.93c.6,0,1.19-.11,1.79-.18l-4.78.65c1-.14,2-.29,3-.47a46.65,46.65,0,0,1-7.38.13c.65.13,1.3.26,2,.36L702,685.9l.51.24-.58-.24-.86-.12q.4.06.81.09l-2.58-1.09c.15.14.31.27.46.39l-.56-.43-1-.42.9.35-1.82-1.41c.16.26.35.52.54.78l-.69-.9-.67-.51q.09.3.21.6l-.27-.65h0c-.11-.27-.23-.54-.34-.82l-.11-.14c0,.47,0,.95.08,1.43l-.21-1.56c-.15.61-.27,1.22-.37,1.85l.27-2-.12-.16c-.11.21-.21.43-.31.65l.29-.68-.57-.73c.19.23.37.46.58.69a2.14,2.14,0,0,0,.1-.22c-.28-.64-.55-1.29-.82-1.94.26.6.54,1.19.85,1.76-.08-.62-.17-1.23-.25-1.86a15.67,15.67,0,0,0,.36,1.68c.09-.66.17-1.31.26-2-.06.56-.11,1.12-.12,1.67l1.14-2.7c-.29.71-.55,1.42-.78,2.14a45.88,45.88,0,0,1,3.52-5.61l-1,1.27c.6-.79,1.21-1.58,1.82-2.36-.26.35-.52.69-.77,1a185.13,185.13,0,0,1,28.14-27.48c-.48.35-.95.71-1.42,1.07l3.64-2.81-2.08,1.63a221.94,221.94,0,0,1,45.5-26.19l-2.35,1,4.3-1.81-1.83.79c23.42-9.56,48.1-15.67,73.11-19.27l-2,.26,2.06-.28,2.73-.36ZM1094.92,621c-12.87,29.62-25.84,59.21-42.12,87.14l-5.38,5.38a25.71,25.71,0,0,0-4.86,6.19,25.15,25.15,0,0,0-1.08,2.44h0c-1.42,1.25-3,2.42-4.33,3.62q-2.34,2.05-4.75,4l-.08.06a67.77,67.77,0,0,1-6.2,4c1-3.95,2-7.88,3-11.76q2.71-10.42,6-20.7c4-12.74,8.68-25.27,13.8-37.59a640,640,0,0,1,30.7-62.15,193.48,193.48,0,0,0,25.94-6.21Q1100.19,608.26,1094.92,621Zm30.47-72q-5.66,2.73-11.42,5.23l-.18.08q-3.32,1.36-6.68,2.62,3.86-5.79,7.82-11.49,9.78-14.06,20.2-27.63,4.23-5.46,8.59-10.82Q1134.49,528,1125.39,549Zm258.5-215.35a58.62,58.62,0,0,1-2.86,9.87,101.2,101.2,0,0,1-10.81,18c-5.36,6.57-11.59,12.51-17.56,18.51q-10.12,10.19-20.59,20-20.71,19.47-42.67,37.54-11,9-22.16,17.75-27.85,21.45-57,41.15c-10.68,7.27-21.44,14.5-32.3,21.56q2.17-5,4.37-9.93c7.31-16.59,15.34-32.88,23.15-49.25q8.05-16.9,16.14-33.81,6.27-5.64,12.65-11.14,15.4-13.24,31.49-25.7c21.6-16.6,43.91-32.72,67.37-46.56a209.13,209.13,0,0,1,21.32-11.22,88.85,88.85,0,0,1,17.15-5,60.72,60.72,0,0,1,10.87-.07,5.35,5.35,0,0,1,.55.11l.17.31a29.2,29.2,0,0,1,.78,2.92A35.13,35.13,0,0,1,1383.89,333.68Z" transform="translate(-553.33 -196.17)"/><path d="M1019.24,777.5h-.39a33.78,33.78,0,0,1-23.72-10.32c-6.18-6.43-9.79-14.59-10.75-24.24-.56-5.61.8-11.25,2-16.23.22-.92.44-1.83.64-2.73,1.16-5.08,2.47-10.33,3.87-15.59,2.6-9.67,5.61-19.42,8.93-29a567.46,567.46,0,0,1,30.91-71.66c-3.92-.19-8-.4-12.28-.64-9.7-.53-19.56-1.15-29.1-1.76-29.35-1.85-59.68-3.76-89.44-3.4-6.93,8.45-13.95,16.52-20.91,24-23.6,25.44-49,46.88-75.41,63.73a300.2,300.2,0,0,1-46.52,24,240.05,240.05,0,0,1-23.81,8.56c-11.34,3.39-20.47,4.78-28.72,4.39-11.91-.57-22.39-4.28-31.13-11-9.12-7.05-15.31-16.48-17-25.89A43.58,43.58,0,0,1,657,670a51.58,51.58,0,0,1,6-13.63c4.5-7.17,10.23-13.31,15.77-19.24a217.17,217.17,0,0,1,38.58-32.54c12.82-8.54,27.22-16,45.31-23.36,28.16-11.53,60.08-18.84,97.57-22.35,5.78-.54,11.7-1,17.63-1.3,2.56-3.38,5.13-6.85,7.84-10.58,22.31-30.72,42.43-63.76,61.89-95.71,8.79-14.43,17.88-29.35,27.06-43.88,25.83-40.91,57.91-88.1,99.93-128a403.61,403.61,0,0,1,33.3-28.18,263.49,263.49,0,0,1,29.37-19.86c8.1-4.63,18.91-10.17,30.67-11.88,6.59-1,14.45-1.63,22.74.78a44.54,44.54,0,0,1,19.79,12c24.5,26.1,15.23,66,10.1,82-7.72,24.07-21.24,47-42.53,72.23-32.79,38.81-76.17,69.79-125.45,89.6-7.08,2.84-14.7-.46-17.65-2-4.77-2.52-8.48-7.26-10.45-13.35-1.71-5.3-.82-12.34,2.22-17.53,3.34-5.71,8.2-8.27,13-10.18.94-.37,1.88-.76,2.81-1.16a291.7,291.7,0,0,0,60.28-35.23A293.24,293.24,0,0,0,1152,347.43a183.1,183.1,0,0,0,22-36.56,122.52,122.52,0,0,0,7.27-25.58,69.44,69.44,0,0,0,.18-12.67,44.78,44.78,0,0,0-1.59-6.05c-.49-1-1-1.89-1.58-2.77l-.23-.25c-.63,0-1.27,0-1.94,0a50.81,50.81,0,0,0-8,2.43c-12.83,5.86-24.65,14.34-35.51,22.64l-.15.11C1107,308.66,1083,333.28,1059,364.07c-4.31,5.61-8.57,11.35-12.65,17C1027,408,1009.43,436.32,993.14,463l-6.86,11.25C971.22,499,955.64,524.53,939.12,549c-1.92,2.83-3.83,5.63-5.72,8.36,9.17.31,19.21.78,30.94,1.46,8.29.47,16.71,1,24.85,1.52,21.53,1.35,43.79,2.75,65.68,3.29,10-17,20.91-32.76,29.43-44.76,11.45-16.12,23.65-32,36.28-47.21a725.79,725.79,0,0,1,68.09-71.28c9.31-19.51,20.27-42.55,31.33-66.22,2.2-4.71,7.1-8.59,13.45-10.65,5.34-1.73,11.5-1,17.36,2.12,4.74,2.5,9,7.94,10.51,13.53q.24.9.42,1.8c9-6.52,18.22-13,27.58-19.31,17.79-12,36.94-24.3,58.42-31.74,12.14-4.22,24.32-5.93,35.22-4.94,8.53.78,20.2,1.85,27.59,10a56,56,0,0,1,11.11,18.47h0a49.47,49.47,0,0,1,2.86,16.92,66.08,66.08,0,0,1-2.21,17,97.07,97.07,0,0,1-12.42,27.8c-10.26,16.2-24.23,29.63-37.75,42.61l-3.38,3.25c-27.65,26.68-58.26,52.46-93.57,78.8-29,21.68-60.83,43.21-100,67.77-6.14,3.85-12.41,7.51-18.68,10.88-3.56,8.26-7.24,16.88-11.23,26.3-3.84,9.11-7.7,18.41-11.43,27.4l-1.29,3.11c-8,19.29-16.38,38.05-24.92,55.76-4.39,9.12-8.64,17.43-13,25.41-2.44,4.47-4.92,8.85-7.37,13a44.46,44.46,0,0,1-8,9.38c-.57.56-1.15,1.11-1.72,1.68a24.81,24.81,0,0,1-5.46,8.34c-1.1,1.08-2.24,2.05-3.35,3l-1.59,1.38c-4.61,4.06-9,7.65-13.51,11a64.35,64.35,0,0,1-11.87,7.11C1034.71,774.55,1027.09,777.5,1019.24,777.5ZM907.38,592.88c27.63,0,55.5,1.76,82.54,3.47,9.52.6,19.37,1.22,29,1.76,6.88.38,13.15.69,19.18.93l7.08.29-3.27,6.29c-14.16,27.2-25.16,52.29-33.62,76.71-3.25,9.39-6.19,18.94-8.73,28.39-1.38,5.15-2.66,10.29-3.79,15.26-.21.93-.44,1.88-.67,2.84-1.08,4.49-2.2,9.14-1.79,13.23.76,7.71,3.47,13.88,8.28,18.89A24.65,24.65,0,0,0,1019,768.5h.27c6.15,0,12.68-2.57,18.82-5.35a55.57,55.57,0,0,0,10.23-6.13c4.27-3.18,8.5-6.62,12.92-10.51.55-.49,1.12-1,1.7-1.47,1-.89,2-1.72,2.91-2.59a17.14,17.14,0,0,0,3.76-6.15l.34-.82.62-.63c.81-.83,1.65-1.64,2.48-2.45a36.62,36.62,0,0,0,6.49-7.47c2.4-4.09,4.84-8.38,7.23-12.77,4.28-7.85,8.47-16,12.8-25,8.46-17.57,16.77-36.17,24.7-55.3l1.3-3.12c3.73-9,7.6-18.31,11.45-27.45,4.23-10,8.12-19.09,11.88-27.8l.62-1.45,1.39-.74c6.55-3.49,13.12-7.29,19.53-11.31,39-24.43,70.54-45.84,99.4-67.37,35-26.11,65.32-51.64,92.71-78.06l3.39-3.26c13.12-12.61,26.7-25.66,36.38-40.93a88.74,88.74,0,0,0,11.3-25.2,57.59,57.59,0,0,0,1.93-14.72,41.09,41.09,0,0,0-2.27-13.82h0a46.55,46.55,0,0,0-9.37-15.64c-5-5.57-14.68-6.45-21.73-7.1-9.62-.87-20.5.68-31.45,4.48-20.46,7.09-39,19.05-56.34,30.7-11.95,8.06-23.7,16.38-34.94,24.72l-11,8.14,4-13.06a12.6,12.6,0,0,0,.22-7.35,13.78,13.78,0,0,0-6-8c-3.64-1.92-7.42-2.48-10.38-1.52-3.93,1.27-6.94,3.47-8.07,5.89-11.23,24-22.35,47.4-31.75,67.09l-.38.79-.65.59a717.25,717.25,0,0,0-67.88,71C1115,492.4,1103,508.1,1091.64,524c-8.77,12.35-20.13,28.77-30.25,46.23l-1.23,2.12-2.45.11c-.87,0-1.74.07-2.62.09h-.21c-22.13-.53-44.56-2-66.25-3.31-8.13-.51-16.54-1-24.81-1.52-15.29-.88-27.69-1.41-39-1.68l-8.46-.2,4.9-6.91c3.4-4.79,6.91-9.85,10.42-15.05,16.41-24.25,31.93-49.72,46.94-74.34l6.86-11.26c16.38-26.83,34-55.31,53.55-82.48,4.13-5.75,8.45-11.56,12.83-17.28,24.56-31.45,49.12-56.59,75.09-76.9l.28-.22c11.29-8.62,23.62-17.45,37.27-23.67l.25-.1a58.19,58.19,0,0,1,10-3l.58-.08c1.26-.08,2.46-.1,3.66-.06l.41,0,.41.09.84.21h.46l1,.51c.37.19.74.41,1.11.64l.41.26.31.32c.45.42.86.84,1.27,1.29l.3.31.23.35a43.31,43.31,0,0,1,2.4,4.23l.23.53a54.18,54.18,0,0,1,2.08,7.87l.05.41a76,76,0,0,1-.16,14.5v.81l-.17.36a132.39,132.39,0,0,1-7.73,27l-.06.15a193,193,0,0,1-23.17,38.51A282.82,282.82,0,0,1,1046,440.1c-1,.43-2,.84-3,1.24-3.89,1.57-6.68,3.18-8.54,6.37a14,14,0,0,0-1.43,10.22c.72,2.22,2.48,6.25,6.09,8.16,3,1.55,7.16,2.8,10.09,1.62,47.93-19.26,90.09-49.36,121.93-87,20.51-24.28,33.49-46.26,40.85-69.19,4.63-14.43,13.12-50.43-8.1-73a35.4,35.4,0,0,0-15.74-9.5c-6.63-1.92-13.29-1.34-18.93-.52-10.26,1.5-20.09,6.56-27.51,10.8a256.43,256.43,0,0,0-28.37,19.2A396.48,396.48,0,0,0,1080.77,286c-41.31,39.22-73,85.84-98.52,126.27-9.15,14.47-18.21,29.36-27,43.76-19.55,32.11-39.77,65.31-62.3,96.32-3.19,4.4-6.21,8.45-9.22,12.41l-1.35,1.77h-2.13c-6.46.32-12.92.78-19.21,1.37-36.6,3.43-67.67,10.53-95,21.72-17.51,7.17-31.41,14.33-43.73,22.53a208.25,208.25,0,0,0-37,31.14c-5.29,5.66-10.71,11.48-14.75,17.92a42.11,42.11,0,0,0-5,11.19,34.91,34.91,0,0,0-.35,15.79c1.28,7.22,6.24,14.63,13.61,20.33s16,8.69,26.06,9.16c7.21.35,15.38-.92,25.71-4a236,236,0,0,0,22.93-8.24,292.07,292.07,0,0,0,45.14-23.3c25.79-16.44,50.57-37.39,73.65-62.26,7.27-7.83,14.63-16.31,21.86-25.2l1.32-1.63,2.1,0C900.91,592.91,904.15,592.88,907.38,592.88ZM1132.54,288.7l0,0ZM1019.3,743l2.44-10.11c.68-2.85,1.44-5.7,2.17-8.46.3-1.13.59-2.26.89-3.38,1.81-7,3.84-14,6-20.93,3.89-12.31,8.58-25.08,13.93-38a646.64,646.64,0,0,1,30.94-62.62l1-1.88,2.13-.36a189.42,189.42,0,0,0,25.34-6.07l9.26-2.89-3.77,8.94c-3.68,8.71-7.25,17.29-10.63,25.48l0,.08c-12,27.51-25.51,58.7-42.36,87.62l-.3.5-5.79,5.79a22,22,0,0,0-4,5.06,20.36,20.36,0,0,0-.89,2l-.38,1-.79.72c-.84.74-1.64,1.39-2.44,2s-1.34,1.1-2,1.65c-1.58,1.39-3.18,2.74-4.74,4l-.07.07-.34.24a71.56,71.56,0,0,1-6.61,4.3Zm63.2-137.19a635.61,635.61,0,0,0-29.44,59.85c-5.24,12.59-9.83,25.12-13.65,37.18-2.1,6.63-4.05,13.39-5.81,20.11l.57-.5c.71-.62,1.46-1.23,2.21-1.85l1.34-1.1c.27-.63.54-1.22.84-1.79a29.39,29.39,0,0,1,5.68-7.32l5-5c16.45-28.31,29.8-59,41.58-86.12,2.25-5.48,4.59-11.12,7-16.85C1092.68,603.77,1087.57,604.9,1082.5,605.8ZM703.3,704l-4.88-9-1.09,8L695,694.28l-3.86,9.15.32-18.06-14.19-7.5,9.53,1.34-9.47-8.82,9.28,4-6-9.73,7.61,5.87v0l3.13,2.42-.12-5.3,2.6,3.49,3.38-13.74,1.49,11.12a193,193,0,0,1,25.26-24.4l0,0,1.84-1.42,1.8-1.39,0,0a226.89,226.89,0,0,1,42.06-24.18l0-.05.29-.13,1.45-.61,2.58-1.08,0,0a315.88,315.88,0,0,1,70.37-18.53v0h0l.45-.06.22-.24h1.52l1.27-.16,1.29-.18,1.13,7.94h0l.13,1-1.21.17a395.65,395.65,0,0,1-40,36.74l0,0-3.65,2.83,0,0a298.82,298.82,0,0,1-57,33.84l0,.05-2.48,1-1.81.76v0a185.21,185.21,0,0,1-24,8.25l9.16,3.83-14-1.06,9.9,7.62-23.48-8.63h-.13Zm-.14-22.48,1,.15v-.09a40.67,40.67,0,0,0,6.5-.11c10.94-1.9,21.88-6.06,31.16-9.9a288.18,288.18,0,0,0,60.25-35.64,375.58,375.58,0,0,0,32-28.37,296.61,296.61,0,0,0-58.61,16.79v0h0v0A218.19,218.19,0,0,0,730.9,650h0l0,0v0a179.66,179.66,0,0,0-27.39,26.72,40.17,40.17,0,0,0-2.42,3.7l.47.37Zm392.48-115.44,7.72-11.6c2.49-3.74,5.14-7.63,7.87-11.57,6.57-9.44,13.41-18.79,20.33-27.8,2.79-3.6,5.7-7.27,8.67-10.92l21-25.91-13.44,30.56c-6.63,15.08-12.63,28.81-18.32,42l-.66,1.53-1.51.73c-3.88,1.87-7.73,3.64-11.47,5.25l-.38.17c-2.14.88-4.37,1.76-6.81,2.67Zm28.9-26.41c-1.71,2.39-3.42,4.8-5.1,7.21l2.49-1.17Zm43.23-9.62,6-13.78q2.13-4.86,4.28-9.73l.09-.21c5.66-12.85,11.84-25.69,17.82-38.12q2.7-5.62,5.39-11.25,5.37-11.26,10.76-22.54l5.76-12.08.67-.6c4.23-3.8,8.51-7.57,12.72-11.2,10.23-8.79,20.88-17.49,31.67-25.85,26.57-20.41,47.48-34.86,67.84-46.88a209,209,0,0,1,21.79-11.45l.17-.08a92.41,92.41,0,0,1,18-5.21l.35-.05a65.08,65.08,0,0,1,11.67-.07l.36,0c.37.06.7.13,1,.21l1.74.49.93,1.55.19.34.23.39.16.5a32.31,32.31,0,0,1,.9,3.37l.09.65a41.34,41.34,0,0,1,0,5.56l-.07.49a63.72,63.72,0,0,1-3.08,10.63l-.11.26a105.41,105.41,0,0,1-11.29,18.81l-.12.16A207.33,207.33,0,0,1,1359,380.08c-1,1.06-2.1,2.1-3.15,3.15-6.79,6.84-13.76,13.61-20.7,20.12-13.58,12.76-28,25.46-42.89,37.73-7.1,5.87-14.59,11.87-22.26,17.83-18,13.83-36.67,27.34-57.24,41.32-12.56,8.55-22.85,15.42-32.38,21.61Zm57.49-102.21-5,10.46q-5.38,11.26-10.76,22.54c-1.79,3.76-3.6,7.51-5.4,11.27-5.32,11-10.79,22.44-15.9,33.82,6-4,12.35-8.27,19.49-13.13,20.42-13.88,39-27.29,56.8-41,7.57-5.89,15-11.83,22-17.65,14.74-12.15,29-24.72,42.46-37.35,6.87-6.44,13.76-13.14,20.48-19.9l3.18-3.18c4.8-4.78,9.76-9.72,14-14.92a97.4,97.4,0,0,0,10.21-17,55,55,0,0,0,2.54-8.73,31,31,0,0,0,.06-3.33,58,58,0,0,0-7.31.2,84,84,0,0,0-16,4.66,202,202,0,0,0-20.78,10.95c-20,11.81-40.66,26.08-66.91,46.25-10.65,8.25-21.19,16.85-31.3,25.54C1233.23,420.75,1229.23,424.27,1225.26,427.83Z" transform="translate(-553.33 -196.17)"/></svg>