<svg id="Layer_1" data-name="Layer 1" xmlns="http://www.w3.org/2000/svg" viewBox="0 0 660 559.94"><defs><style>.cls-1{fill:#fff;}.cls-1,.cls-2{stroke:#000;stroke-miterlimit:10;stroke-width:12px;}.cls-2{fill:#3fa9f5;}</style></defs><title>sp2.4</title><rect class="cls-1" x="6" y="6" width="648" height="547.94"/><polygon class="cls-2" points="258.38 507.09 115.74 507.09 57.62 448.97 57.62 396.71 125.91 396.71 125.91 420.68 144.03 438.79 230.09 438.79 248.21 420.68 248.21 334.62 230.09 316.5 115.74 316.5 57.62 258.38 57.62 115.74 115.74 57.62 258.38 57.62 316.5 115.74 316.5 168 248.21 168 248.21 144.03 230.09 125.91 144.03 125.91 125.91 144.03 125.91 230.09 144.03 248.21 258.38 248.21 316.5 306.33 316.5 448.97 258.38 507.09"/><path class="cls-2" d="M1166.45,268.41H1023.8l-58.12,58.12.66,98.32.36,53.28,1.59,238.16H1035l-.51-181h132l58.12-58.12V326.53Zm-10.18,180.41-18.11,18.12h-86.07l-17.85-17.85-.26-94.27,18.11-18.11h86.07l18.11,18.11v24h1.12Z" transform="translate(-624 -210)"/><path class="cls-2" d="M958.76,392.29" transform="translate(-624 -210)"/><polygon class="cls-2" points="342.7 268.13 341.68 267.12 341.68 214.85 342.34 214.85 342.7 268.13"/></svg>